<svg xmlns="http://www.w3.org/2000/svg" xmlns:xlink="http://www.w3.org/1999/xlink" viewBox="0 0 280.71 344.24"><defs><style>.cls-1,.cls-2,.cls-3,.cls-4,.cls-5{stroke:#000;stroke-miterlimit:10;stroke-width:2px;}.cls-1{fill:url(#Neutral_3);}.cls-2{fill:url(#Neutral_3-2);}.cls-3{fill:url(#Neutral_3-3);}.cls-4{fill:url(#New_Gradient_Swatch);}.cls-5{fill:url(#New_Gradient_Swatch-2);}</style><linearGradient id="Neutral_3" x1="105.52" y1="91.76" x2="175.2" y2="91.76" gradientUnits="userSpaceOnUse"><stop offset="0" stop-color="#fff"/><stop offset="0.15" stop-color="#939393"/><stop offset="0.44" stop-color="#fff"/><stop offset="0.74" stop-color="#d6d6d6"/><stop offset="1" stop-color="#fff"/></linearGradient><linearGradient id="Neutral_3-2" x1="70.68" y1="172.12" x2="210.04" y2="172.12" xlink:href="#Neutral_3"/><linearGradient id="Neutral_3-3" x1="105.52" y1="242.52" x2="175.2" y2="242.52" xlink:href="#Neutral_3"/><linearGradient id="New_Gradient_Swatch" x1="1" y1="172.12" x2="53.26" y2="172.12" gradientUnits="userSpaceOnUse"><stop offset="0" stop-color="#c3922e"/><stop offset="0.25" stop-color="#fbcc34"/><stop offset="0.34" stop-color="#eabb32"/><stop offset="0.5" stop-color="#c3922e"/><stop offset="0.75" stop-color="#fbcc34"/><stop offset="1" stop-color="#c3922e"/></linearGradient><linearGradient id="New_Gradient_Swatch-2" x1="227.45" y1="172.12" x2="279.71" y2="172.12" xlink:href="#New_Gradient_Swatch"/></defs><g id="Layer_2" data-name="Layer 2"><g id="Layer_2_copy" data-name="Layer 2 copy"><path class="cls-1" d="M174.87,61.49l-17.09-9.87-.33-.19-17.09-9.86-.33-.2-17.09,9.87-.33.19L105.52,61.3v80.45l17.08-9.86.34-.19V111.58L140,101.72l.33.19,17.09,9.86.33.2v20.11l17.09,9.86.33.2V61.68ZM157.78,91.85l-.33-.19-17.09-9.87L140,81.6l-17.09,9.87V71.35L140,61.49l.33.19,17.08,9.87h0l.33.19Z"/><polygon class="cls-2" points="210.04 41.57 210.04 161.86 209.7 162.06 192.62 152.19 192.62 51.62 192.29 51.43 175.2 41.56 174.87 41.37 157.78 31.51 157.45 31.32 140.36 21.45 140.03 21.26 122.94 31.12 122.6 31.32 105.52 41.18 105.18 41.37 88.1 51.24 88.1 171.93 105.19 162.06 105.52 161.87 122.61 152 122.94 151.81 140.03 141.95 140.36 142.14 157.44 152 157.78 152.2 174.86 162.06 175.2 162.26 192.27 172.12 192.28 172.12 192.62 172.31 209.7 182.17 210.04 182.37 210.04 302.66 209.7 302.86 192.62 312.72 192.29 312.91 175.2 322.78 174.87 322.97 157.78 332.83 157.44 333.03 140.36 342.89 140.03 343.08 122.94 333.22 122.61 333.03 105.52 323.16 105.19 322.97 88.1 313.1 87.77 312.91 70.68 303.04 70.68 222.21 87.77 212.34 88.1 212.15 88.1 292.99 105.18 302.86 105.52 303.05 122.6 312.91 122.94 313.11 140.03 322.97 140.36 322.78 157.45 312.91 157.78 312.72 174.87 302.86 175.2 302.67 192.29 292.8 192.62 292.61 192.62 192.42 192.29 192.23 175.2 182.36 174.86 182.17 157.78 172.31 157.45 172.12 140.36 162.25 140.03 162.06 122.94 171.92 122.61 172.12 105.52 181.98 105.19 182.17 88.1 192.04 87.77 192.23 70.68 202.09 70.68 41.19 87.77 31.32 88.1 31.13 105.19 21.26 105.52 21.07 122.61 11.2 122.94 11.01 140.03 1.15 140.36 1.34 157.44 11.2 157.78 11.4 174.87 21.26 175.2 21.45 192.29 31.32 192.62 31.51 209.7 41.37 209.71 41.37 210.04 41.57"/><path class="cls-3" d="M174.87,202.29h0l-17.08-9.87-.34-.19-17.08-9.87-.33-.19L122.94,192l-.33.19-17.09,9.87v80.83l17.09,9.87.33.19L140,302.86l.33-.2,17.09-9.86.33-.19,17.09-9.87.33-.19V262.43l-.33.2-17.09,9.86-.33.19-17.09,9.87-.33.19-17.09-9.86V252.76L140,262.63l.33-.19,17.09-9.87.33-.19,17.09-9.87.33-.19V202.48Zm-17.09,30-.33.2-17.09,9.86-.33.19-17.09-9.86v-20.5L140,202.28l.33.19,17.09,9.87.33.19Z"/><polygon class="cls-4" points="53.26 51.24 53.26 212.15 52.93 212.34 35.84 222.21 35.84 81.41 35.51 81.6 18.42 91.47 18.42 252.76 35.51 262.63 35.84 262.82 35.84 242.33 52.93 232.46 53.26 232.27 53.26 292.99 52.93 292.8 35.84 282.93 35.51 282.74 18.42 272.87 18.09 272.68 1 262.82 1 81.41 18.09 71.55 18.42 71.36 35.51 61.49 35.84 61.3 52.93 51.43 53.26 51.24"/><polygon class="cls-5" points="279.71 81.79 279.71 262.44 279.38 262.63 262.29 272.49 261.96 272.68 244.87 282.55 244.54 282.74 227.45 292.61 227.45 192.42 244.54 202.29 244.87 202.48 244.87 262.44 261.96 252.57 262.29 252.39 262.29 91.84 261.96 91.66 244.87 81.79 244.87 182.36 244.54 182.17 227.45 172.3 227.45 51.62 244.54 61.49 244.87 61.68 261.96 71.55 262.29 71.74 279.38 81.6 279.71 81.79"/></g></g></svg>